# xmcd
#
# Track frame offsets:
#	183
#	13818
#	32998
#	52080
#	66503
#	91365
#	108073
#	125070
#	143418
#	160538
#	178488
#
# Disc length: 2673 seconds
#
# Revision: 3
# Processed by: cddbd v1.5.1PL0 Copyright (c) Steve Scherf et al.
# Submitted via: audiograbber 1.83.01
#
DISCID=9a0a6f0b
DTITLE=Sue Medley - Sue Medley
DYEAR=1994
DGENRE=Rock
TTITLE0=That's Life
TTITLE1=Heart of Mine
TTITLE2=Dangerous Times
TTITLE3=Blue Skies
TTITLE4=Queen of the Underground
TTITLE5=Oh, Atlanta
TTITLE6=Love Thing
TTITLE7=Start it Over
TTITLE8=57 Chevy
TTITLE9=Blue Train
TTITLE10=Maybe the Next Time
EXTD=Canadian Artist
EXTT0=
EXTT1=
EXTT2=
EXTT3=
EXTT4=
EXTT5=
EXTT6=
EXTT7=
EXTT8=
EXTT9=
EXTT10=
PLAYORDER=
